<svg width="22" height="19" viewBox="0 0 22 19" fill="none" xmlns="http://www.w3.org/2000/svg">
<path d="M14.4565 7.51426L14.3144 7.3722C13.6661 6.74719 12.8549 6.27292 11.9235 6.02335C9.0168 5.2445 6.22541 6.89196 5.43185 9.85353C5.38901 10.0134 5.36574 10.1929 5.3285 10.6443C5.17423 12.5144 4.73449 13.9089 3.5286 15.3234C5.78847 16.2119 8.46572 16.8378 10.5016 16.8378C12.9702 16.8378 15.1644 15.1786 15.8126 12.7594C16.3306 10.8261 15.7513 8.85733 14.4565 7.51426ZM12.2886 4.05224L17.2278 0.210652C17.6259 -0.0989677 18.1922 -0.0637076 18.5488 0.292902L21.543 3.2871C21.8997 3.64371 21.9349 4.21005 21.6253 4.60814L17.7847 9.54603C18.0778 10.7343 18.0836 12.0113 17.7444 13.2771C16.8463 16.6289 13.8142 18.8378 10.5016 18.8378C7 18.8378 2.5 17.3359 0 15.8359C3.97978 12.8359 3.04722 11.0257 3.5 9.33593C4.55843 5.38581 8.34224 3.07858 12.2886 4.05224ZM15.7015 5.93084C15.7673 5.99429 15.8319 6.05887 15.8952 6.12456L17.0297 7.25907L19.5046 4.07709L17.7589 2.33133L14.5769 4.80621L15.7015 5.93084Z" fill="#243F27"/>
</svg>
