<svg width="22" height="19" viewBox="0 0 22 19" fill="none" xmlns="http://www.w3.org/2000/svg">
<path d="M12.2886 4.05224L17.2278 0.210652C17.6259 -0.0989677 18.1922 -0.0637076 18.5488 0.292902L21.543 3.2871C21.8997 3.64371 21.9349 4.21005 21.6253 4.60814L17.7847 9.54603C18.0778 10.7343 18.0836 12.0113 17.7444 13.2771C16.8463 16.6289 13.8142 18.8378 10.5016 18.8378C7 18.8378 2.5 17.3359 0 15.8359C3.97978 12.8359 3.04722 11.0257 3.5 9.33593C4.55843 5.38581 8.34224 3.07858 12.2886 4.05224ZM15.7015 5.93084C15.7673 5.99429 15.8319 6.05887 15.8952 6.12456L17.0297 7.25907L19.5046 4.07709L17.7589 2.33133L14.5769 4.80621L15.7015 5.93084Z" fill="#586E4D"/>
</svg>
